<svg width="10" height="10" viewBox="0 0 10 10" fill="none" xmlns="http://www.w3.org/2000/svg">
<path d="M5 0C4.34339 0 3.69321 0.13254 3.08658 0.390052C2.47995 0.647563 1.92876 1.025 1.46447 1.50082C0.526784 2.46179 0 3.76513 0 5.12414C0 7.389 1.435 9.31055 3.42 9.99206C3.67 10.0331 3.75 9.87421 3.75 9.73586V8.86988C2.365 9.17733 2.07 8.18324 2.07 8.18324C1.84 7.58884 1.515 7.43 1.515 7.43C1.06 7.1123 1.55 7.12255 1.55 7.12255C2.05 7.15842 2.315 7.65033 2.315 7.65033C2.75 8.4292 3.485 8.19862 3.77 8.07564C3.815 7.74257 3.945 7.51711 4.085 7.389C2.975 7.2609 1.81 6.82022 1.81 4.86793C1.81 4.29915 2 3.8431 2.325 3.47929C2.275 3.35118 2.1 2.81827 2.375 2.12652C2.375 2.12652 2.795 1.98816 3.75 2.64918C4.145 2.53645 4.575 2.48008 5 2.48008C5.425 2.48008 5.855 2.53645 6.25 2.64918C7.205 1.98816 7.625 2.12652 7.625 2.12652C7.9 2.81827 7.725 3.35118 7.675 3.47929C8 3.8431 8.19 4.29915 8.19 4.86793C8.19 6.82535 7.02 7.25577 5.905 7.38388C6.085 7.54273 6.25 7.8553 6.25 8.33184V9.73586C6.25 9.87421 6.33 10.0382 6.585 9.99206C8.57 9.30543 10 7.389 10 5.12414C10 4.45122 9.87067 3.7849 9.6194 3.16321C9.36812 2.54152 8.99983 1.97664 8.53553 1.50082C8.07124 1.025 7.52005 0.647563 6.91342 0.390052C6.30679 0.13254 5.65661 0 5 0Z" fill="#A4A9B0"/>
</svg>
