<svg width="13" height="14" viewBox="0 0 13 14" fill="none" xmlns="http://www.w3.org/2000/svg">
<path d="M1.52282 12.1381L0.440552 0L12.3325 0L11.2488 12.1362L6.37932 13.4862L1.52282 12.1381Z" fill="white"/>
<path d="M6.38647 12.4546L10.3216 11.3636L11.2473 0.992691L6.38647 0.992691L6.38647 12.4546Z" fill="white"/>
<path d="M6.38649 5.49421H4.41653L4.28071 3.96978H6.38649V2.481H2.65369L2.68933 2.88077L3.0549 6.98299H6.38649V5.49421ZM6.38649 9.36043L6.37974 9.36235L4.7219 8.9149L4.61594 7.72763H3.12137L3.32993 10.0646L6.37974 10.9113L6.38649 10.9094V9.36043Z" fill="#494B42"/>
<path d="M6.38135 5.49421V6.98299H8.21451L8.04208 8.91394L6.38135 9.36187L6.38135 10.9109L9.43357 10.0646L9.45573 9.81318L9.80541 5.89398L9.84201 5.49421H6.38135ZM6.38135 2.481V3.96978H9.97736L10.0072 3.63551L10.0751 2.88077L10.1108 2.481H6.38135Z" fill="#848875"/>
</svg>
