<svg width="14" height="14" viewBox="0 0 14 14" fill="none" xmlns="http://www.w3.org/2000/svg">
<path d="M0.739136 0L13.9524 0V13.2133H0.739136L0.739136 0Z" fill="white"/>
<path d="M9.61518 10.3229C9.72776 10.5516 9.90268 10.7438 10.1198 10.8774C10.3368 11.011 10.5873 11.0805 10.8421 11.078C11.3565 11.078 11.6854 10.8208 11.6854 10.4645C11.6854 10.0398 11.3475 9.88782 10.7813 9.64007L10.4707 9.50699C9.57413 9.12522 8.97953 8.64718 8.97953 7.63636C8.97953 6.7053 9.68738 5.99602 10.7978 5.99602C11.1572 5.97007 11.5164 6.05052 11.8304 6.22733C12.1444 6.40415 12.3994 6.66952 12.5636 6.99033L11.5929 7.61088C11.5297 7.45181 11.4196 7.31572 11.2773 7.22065C11.1349 7.12559 10.967 7.07603 10.7959 7.07857C10.7212 7.0711 10.6458 7.07926 10.5745 7.10254C10.5031 7.12582 10.4374 7.1637 10.3815 7.21378C10.3256 7.26386 10.2808 7.32503 10.2498 7.3934C10.2189 7.46177 10.2025 7.53584 10.2018 7.61088C10.2018 7.98321 10.4325 8.13422 10.9653 8.36593L11.2758 8.499C12.331 8.95156 12.9275 9.41261 12.9275 10.4494C12.9275 11.5673 12.0493 12.1799 10.87 12.1799C10.4105 12.2091 9.95234 12.1048 9.55082 11.8795C9.14931 11.6541 8.82158 11.3174 8.6072 10.91L9.61518 10.3229ZM5.22884 10.4305C5.42373 10.7764 5.60117 11.069 6.02777 11.069C6.43549 11.069 6.69315 10.9095 6.69315 10.2889V6.06681H7.93473V10.3055C7.93473 11.5909 7.17969 12.1761 6.08062 12.1761C5.69213 12.1973 5.3063 12.1005 4.97386 11.8984C4.64142 11.6962 4.37792 11.3982 4.21802 11.0435L5.22884 10.4305Z" fill="#494B42"/>
</svg>
