<svg width="13" height="14" viewBox="0 0 13 14" fill="none" xmlns="http://www.w3.org/2000/svg">
<path d="M1.61056 12.1391L0.528687 0L12.4207 0L11.3373 12.1372L6.46745 13.4873L1.61056 12.1391Z" fill="white"/>
<path d="M6.47473 12.4556L10.4101 11.3645L11.336 0.99276L6.47473 0.99276L6.47473 12.4556Z" fill="white"/>
<path d="M6.47473 5.39061H8.44485L8.58068 3.86606H6.47473V2.37715H10.2078L10.1722 2.77647L9.80659 6.87951H6.47473V5.39061Z" fill="#848875"/>
<path d="M6.48389 9.25713L6.47714 9.25906L4.81916 8.81109L4.71319 7.62372H3.21851L3.42708 9.96136L6.47666 10.8082L6.48389 10.8062V9.25713Z" fill="#494B42"/>
<path d="M8.31809 6.81641L8.1389 8.81013L6.47852 9.2581V10.8072L9.53051 9.96137L9.55315 9.70993L9.81182 6.81641H8.31809Z" fill="#848875"/>
<path d="M6.47998 2.37715V3.86606H2.88367L2.85381 3.53128L2.78589 2.77647L2.75024 2.37715H6.47998ZM6.47468 5.39061V6.87951H4.83741L4.80755 6.54474L4.74011 5.78993L4.70446 5.39061H6.47468Z" fill="#494B42"/>
</svg>
