<svg width="14" height="14" viewBox="0 0 14 14" fill="none" xmlns="http://www.w3.org/2000/svg">
<path d="M7.33314 0.00566277C3.98263 0.00566277 4.19451 1.45441 4.19451 1.45441V2.95978L7.3808 2.95978V3.43168L2.92556 3.43168C2.92556 3.43168 0.780762 3.16741 0.780762 6.56748C0.780762 9.96754 2.67451 9.82927 2.67451 9.82927H3.76791V8.24321C3.76791 8.24321 3.70656 6.34946 5.60833 6.34946L8.79934 6.34946C8.79934 6.34946 10.5794 6.37777 10.5794 4.62607V1.75171C10.5794 1.75171 10.8493 0 7.3506 0L7.33314 0.00566277ZM5.572 1.01412C5.68527 1.01126 5.79685 1.04206 5.89262 1.10262C5.98839 1.16318 6.06406 1.25078 6.11004 1.35434C6.15602 1.4579 6.17027 1.57277 6.15096 1.68443C6.13166 1.79608 6.07968 1.89951 6.00159 1.98162C5.92351 2.06373 5.82282 2.12084 5.71228 2.14573C5.60174 2.17062 5.48629 2.16217 5.38055 2.12144C5.27481 2.08072 5.18352 2.00955 5.11823 1.91694C5.05293 1.82434 5.01657 1.71444 5.01373 1.60117V1.59173C5.01373 1.43979 5.07409 1.29407 5.18153 1.18664C5.28897 1.0792 5.43468 1.01884 5.58662 1.01884L5.572 1.01412Z" fill="white"/>
<path d="M7.42758 13.1293C10.7781 13.1293 10.5662 11.6758 10.5662 11.6758V10.1752H7.38039V9.70328H11.8493C11.8493 9.70328 13.9941 9.943 13.9941 6.56276C13.9941 3.18252 12.1004 3.30097 12.1004 3.30097H10.9928V4.86627C10.9928 4.86627 11.0542 6.76002 9.15239 6.76002H5.95996C5.95996 6.76002 4.17853 6.73312 4.17853 8.48482L4.17853 11.3785C4.17853 11.3785 3.9086 13.1302 7.40729 13.1302H7.42617L7.42758 13.1293ZM9.18873 12.1161C9.07545 12.119 8.96387 12.0882 8.8681 12.0276C8.77233 11.9671 8.69667 11.8795 8.65068 11.7759C8.6047 11.6723 8.59046 11.5575 8.60976 11.4458C8.62907 11.3342 8.68105 11.2307 8.75913 11.1486C8.83722 11.0665 8.9379 11.0094 9.04844 10.9845C9.15899 10.9596 9.27443 10.9681 9.38017 11.0088C9.48591 11.0495 9.5772 11.1207 9.6425 11.2133C9.70779 11.3059 9.74415 11.4158 9.74699 11.5291V11.5432C9.74699 11.6952 9.68663 11.8409 9.57919 11.9483C9.47176 12.0558 9.32604 12.1161 9.1741 12.1161H9.18873Z" fill="white"/>
</svg>
