<svg width="15" height="13" viewBox="0 0 15 13" fill="none" xmlns="http://www.w3.org/2000/svg">
<path d="M7.26722 7.75136C7.98394 7.75136 8.56495 7.17035 8.56495 6.45363C8.56495 5.73691 7.98394 5.15589 7.26722 5.15589C6.5505 5.15589 5.96948 5.73691 5.96948 6.45363C5.96948 7.17035 6.5505 7.75136 7.26722 7.75136Z" fill="white"/>
<path d="M7.26732 9.42908C5.70751 9.4668 4.15161 9.25655 2.65776 8.80616C1.96769 8.58741 1.32407 8.24281 0.759435 7.78978C0.543975 7.63501 0.364545 7.43546 0.233459 7.20483C0.102372 6.9742 0.0227309 6.71793 0 6.45363C0 5.59556 0.942675 4.75463 2.52176 4.20439C4.05555 3.71683 5.65809 3.48053 7.26732 3.50465C8.85508 3.48247 10.4362 3.71449 11.9506 4.19193C12.6152 4.4038 13.237 4.73175 13.7871 5.16056C13.9989 5.30811 14.1757 5.50043 14.3048 5.72388C14.434 5.94734 14.5125 6.19647 14.5346 6.45363C14.5346 7.34543 13.4809 8.24917 11.7834 8.81083C10.3185 9.24655 8.79545 9.45505 7.26732 9.42908ZM7.26732 4.12549C5.72775 4.10491 4.19471 4.32955 2.72576 4.79097C1.2723 5.29812 0.620837 5.99163 0.620837 6.45207C0.620837 6.93379 1.3211 7.69115 2.85865 8.21699C4.28776 8.64569 5.77576 8.84524 7.26732 8.80824C8.7293 8.83438 10.1867 8.63657 11.5888 8.22166C13.185 7.6927 13.9117 6.93431 13.9117 6.45363C13.8855 6.28867 13.8254 6.13094 13.7352 5.9904C13.6449 5.84985 13.5265 5.72955 13.3874 5.63709C12.8952 5.25667 12.3398 4.96603 11.7466 4.77851C10.2978 4.32366 8.78566 4.1032 7.26732 4.12549Z" fill="white"/>
<path d="M4.31883 12.9262C4.07667 12.9318 3.83737 12.873 3.62532 12.7559C2.88197 12.3272 2.6245 11.0907 2.93648 9.44776C3.28045 7.87547 3.87646 6.36917 4.7014 4.98718C5.47523 3.60074 6.4659 2.34702 7.63584 1.27358C8.15138 0.803648 8.74611 0.428778 9.39246 0.166354C9.62624 0.0567933 9.88125 0 10.1394 0C10.3976 0 10.6526 0.0567933 10.8864 0.166354C11.6593 0.611737 11.9153 1.97592 11.5545 3.72682C11.1999 5.2138 10.6194 6.63761 9.83317 7.94862C9.08657 9.31869 8.1271 10.5615 6.99061 11.6306C6.45635 12.1189 5.83631 12.5042 5.16184 12.7668C4.89181 12.8671 4.6068 12.9209 4.31883 12.9262ZM5.23918 5.29552C4.45229 6.61887 3.88106 8.05903 3.54693 9.56196C3.25987 11.0751 3.53551 11.9851 3.93625 12.2166C4.35153 12.4569 5.35961 12.2291 6.58364 11.1597C7.66856 10.1355 8.58435 8.9459 9.29694 7.63508C10.0501 6.38174 10.607 5.02048 10.9482 3.59861C11.2877 1.95048 10.9944 0.941362 10.5781 0.70154C10.422 0.641754 10.2553 0.614991 10.0884 0.622943C9.92148 0.630895 9.75804 0.67339 9.6084 0.747739C9.03308 0.985145 8.50415 1.32218 8.04592 1.74336C6.92814 2.77158 5.98184 3.9718 5.24282 5.29864L5.23918 5.29552Z" fill="white"/>
<path d="M10.2142 12.933C9.51084 12.933 8.61748 12.5073 7.68726 11.7074C6.49682 10.6242 5.4894 9.35557 4.70403 7.9507C3.88943 6.58774 3.29815 5.10323 2.9526 3.55345C2.80274 2.87161 2.77497 2.1686 2.87058 1.47707C2.89269 1.22054 2.9708 0.971979 3.09942 0.748919C3.22803 0.525859 3.40402 0.333731 3.61497 0.186084C4.38686 -0.260856 5.69653 0.198542 7.0332 1.38519C8.14437 2.4349 9.08798 3.64881 9.83112 4.98459C10.6452 6.31573 11.2427 7.76773 11.6012 9.28633C11.7575 9.99318 11.7817 10.7229 11.6723 11.4385C11.6463 11.7024 11.5636 11.9576 11.4297 12.1865C11.2958 12.4154 11.1141 12.6127 10.8968 12.7648C10.6882 12.8804 10.4526 12.9384 10.2142 12.933ZM5.24129 7.6382C5.99472 8.98081 6.95705 10.1949 8.09216 11.235C9.2596 12.2395 10.1857 12.4554 10.5838 12.2213C10.9991 11.9799 11.3053 10.9947 10.9897 9.40053C10.644 7.95067 10.0709 6.56467 9.29178 5.29397C8.58261 4.01551 7.68194 2.85312 6.62104 1.84719C5.36276 0.730095 4.34222 0.480411 3.92642 0.721271C3.79683 0.826585 3.69048 0.957626 3.61409 1.10612C3.5377 1.25461 3.49292 1.41733 3.4826 1.58401C3.40006 2.20073 3.42695 2.82719 3.56202 3.43458C3.8944 4.91666 4.46148 6.33612 5.24181 7.63924L5.24129 7.6382Z" fill="white"/>
</svg>
